<?xml version="1.0" standalone="no"?>
<!DOCTYPE svg PUBLIC "-//W3C//DTD SVG 20010904//EN"
 "http://www.w3.org/TR/2001/REC-SVG-20010904/DTD/svg10.dtd">
<svg version="1.0" xmlns="http://www.w3.org/2000/svg"
 width="320.000000pt" height="320.000000pt" viewBox="0 0 320.000000 320.000000"
 preserveAspectRatio="xMidYMid meet">

<g transform="translate(0.000000,320.000000) scale(0.100000,-0.100000)"
fill="#000000" stroke="none">
<path d="M1570 3126 c0 -40 -3 -101 -6 -135 -6 -56 -5 -61 11 -55 10 4 21 1
27 -7 6 -9 8 7 4 50 -3 35 -6 99 -6 142 0 64 -3 79 -15 79 -12 0 -15 -15 -15
-74z"/>
<path d="M1870 1370 c-52 -21 -105 -42 -118 -45 -28 -7 -42 -40 -32 -80 5 -16
11 -43 14 -58 5 -20 11 -27 21 -23 8 3 15 1 15 -3 0 -5 -5 -11 -11 -13 -6 -2
-8 -14 -3 -32 5 -23 10 -27 31 -21 16 4 22 2 18 -5 -3 -5 -13 -10 -21 -10 -17
0 -19 -46 -1 -53 10 -4 10 -6 0 -6 -7 -1 -13 -13 -13 -29 0 -15 -12 -59 -26
-97 -15 -39 -29 -80 -31 -93 -3 -12 -9 -25 -14 -28 -5 -3 -9 -19 -9 -36 0 -28
-76 -160 -105 -180 -12 -8 -25 -1 -25 15 0 7 4 6 10 -3 8 -11 9 -7 4 15 -6 28
-42 72 -54 68 -3 -1 -6 6 -7 16 -1 10 -15 38 -32 63 -17 25 -31 50 -31 56 0 5
-8 16 -17 23 -9 8 -14 9 -10 3 3 -6 0 -11 -8 -11 -13 0 -13 3 0 17 13 14 13
20 -5 54 -18 36 -18 41 -4 68 16 30 14 45 -5 34 -6 -4 -8 -13 -5 -20 3 -7 -1
-18 -9 -24 -16 -13 -199 -62 -207 -55 -9 8 25 23 43 19 9 -2 17 0 17 5 0 5 10
9 23 9 32 0 127 29 127 38 0 5 -12 13 -27 19 -28 10 -28 10 14 18 47 8 50 13
57 93 3 29 8 58 12 64 4 7 3 8 -4 4 -7 -4 -12 -2 -12 3 0 6 -11 11 -25 11 -15
0 -25 -6 -25 -14 0 -8 -5 -18 -12 -22 -7 -4 -8 -3 -4 4 11 18 -5 62 -23 62
-14 0 -14 -2 -1 -10 8 -5 12 -11 10 -13 -10 -8 -140 -15 -140 -7 0 5 5 10 10
12 6 2 -23 14 -64 27 -41 13 -81 21 -90 18 -31 -12 -147 -194 -145 -229 0 -7
5 -2 11 12 l10 25 15 -35 c19 -44 43 -71 56 -63 6 3 7 1 3 -5 -10 -16 27 -32
73 -32 29 0 41 -4 41 -14 0 -8 22 -32 49 -55 36 -30 51 -52 61 -85 7 -25 23
-55 36 -67 l24 -23 -32 -35 -33 -36 32 29 c18 16 45 47 59 68 15 21 33 38 40
38 16 0 19 -16 4 -25 -5 -3 -10 -13 -10 -22 0 -11 6 -14 21 -10 15 4 19 2 15
-9 -20 -49 -21 -47 15 -39 28 6 32 5 22 -6 -21 -22 -15 -39 14 -39 48 0 7 -23
-104 -58 l-102 -33 -41 26 -41 26 23 20 23 20 -27 -16 c-31 -19 -27 -21 -130
57 -43 33 -78 55 -78 51 1 -20 260 -192 375 -249 105 -52 262 -94 357 -96 95
-2 116 22 84 97 l-13 30 77 53 c89 60 275 246 264 264 -4 7 -3 8 4 4 23 -14
302 236 302 269 0 5 -11 -6 -25 -25 -25 -33 -61 -70 -101 -100 -10 -8 7 13 39
48 42 44 57 68 55 84 -2 19 -9 23 -33 21 -49 -4 -55 -6 -55 -15 0 -5 -4 -6
-10 -3 -5 3 -10 -1 -10 -9 0 -9 -11 -18 -25 -22 -14 -3 -22 -10 -19 -16 3 -5
-3 -12 -15 -15 -11 -3 -19 -9 -16 -13 7 -12 -13 -23 -26 -14 -14 8 32 56 96
100 27 19 45 34 38 34 -18 0 -102 -71 -183 -156 -41 -43 -63 -68 -49 -55 15
12 29 18 32 14 6 -10 -33 -49 -45 -45 -5 1 -8 -5 -8 -13 0 -8 -6 -15 -14 -15
-8 0 -16 -7 -20 -15 -3 -8 -13 -15 -23 -15 -13 0 -9 9 18 36 54 57 -186 -139
-279 -228 -55 -52 -89 -77 -99 -74 -18 7 -18 6 66 103 29 34 59 59 65 57 12
-5 452 425 448 438 -1 4 5 5 13 2 8 -4 15 -1 15 6 0 6 4 9 9 5 6 -3 15 1 22 8
7 7 25 11 41 9 15 -2 28 0 28 6 0 20 -172 171 -184 162 -74 -58 -172 -170
-147 -170 5 0 12 9 16 19 7 24 93 115 122 130 39 20 37 12 -6 -25 -23 -20 -60
-61 -82 -90 l-39 -53 21 -65 20 -66 -78 -81 c-43 -45 -91 -90 -106 -101 l-28
-20 -42 27 c-29 18 -34 19 -18 5 13 -11 31 -25 40 -29 12 -7 13 -12 3 -23 -6
-8 -8 -18 -4 -22 4 -4 3 -7 -3 -6 -5 1 -28 2 -50 1 -28 -1 -36 -4 -26 -10 8
-5 20 -7 27 -4 13 5 14 -22 1 -32 -4 -3 -4 -2 -1 3 3 4 -16 12 -43 19 -30 7
-39 11 -23 12 18 1 21 4 12 10 -10 6 -11 13 -3 27 29 53 69 154 75 191 3 24
16 68 27 99 19 51 26 58 70 76 27 11 46 24 43 29 -3 5 2 6 10 3 9 -3 16 -1 16
5 0 6 6 11 13 11 7 0 31 18 52 41 22 22 60 55 84 72 30 20 40 32 30 35 -7 3
-36 22 -63 43 -62 50 -92 50 -216 -1z m191 3 l24 -27 -29 18 c-21 13 -31 15
-40 6 -8 -8 -6 -9 8 -4 12 5 17 4 13 -3 -4 -6 -28 -13 -54 -17 -27 -4 -75 -18
-108 -32 -87 -37 -95 -39 -95 -21 0 13 60 66 67 60 3 -3 11 0 78 26 73 28 107
26 136 -6z m62 -42 c9 -9 2 -21 -33 -49 -24 -20 -57 -49 -72 -64 -18 -18 -34
-25 -45 -21 -11 4 -14 3 -9 -5 5 -8 -2 -12 -23 -12 -16 0 -58 -9 -92 -20 -35
-10 -65 -18 -67 -16 -2 2 14 10 34 16 35 12 37 14 16 21 -12 5 -23 18 -23 29
-1 11 -2 26 -3 33 -1 6 -5 15 -9 18 -13 9 115 60 154 62 19 1 37 7 41 12 5 6
8 5 8 -2 0 -7 5 -13 11 -13 5 0 7 5 3 11 -4 8 1 9 16 4 13 -4 20 -3 17 2 -9
14 62 8 76 -6z m-368 -20 c-3 -5 -1 -12 5 -16 17 -10 11 -32 -10 -38 -22 -6
-27 12 -8 31 9 9 9 12 -2 12 -13 0 -13 2 0 10 19 12 23 12 15 1z m478 -55 c41
-31 79 -82 64 -84 -56 -9 -84 -9 -102 -2 -14 6 -27 4 -35 -3 -10 -9 -11 -9 -4
3 6 12 2 11 -19 -2 -14 -10 -37 -18 -49 -18 -21 1 -21 2 -5 11 10 6 22 22 28
35 5 15 14 22 21 18 6 -4 8 -3 4 4 -5 8 48 61 62 62 2 0 18 -11 35 -24z m-481
-58 c-7 -7 -12 -8 -12 -2 0 14 12 26 19 19 2 -3 -1 -11 -7 -17z m-666 -17 c13
-11 47 -22 74 -26 28 -4 60 -15 73 -25 22 -19 22 -19 -18 -5 -22 8 -49 14 -60
15 -28 1 -105 37 -105 50 0 15 9 13 36 -9z m334 -113 c0 -14 -8 -18 -32 -17
-57 1 -111 14 -116 27 -3 10 11 12 66 9 61 -4 70 -2 65 12 -4 14 -3 14 6 1 6
-8 11 -23 11 -32z m790 39 c0 -1 -82 -83 -182 -182 l-183 -180 180 183 c167
169 185 187 185 179z m-1190 -23 c0 3 13 1 29 -4 21 -6 31 -4 34 4 3 7 20 10
46 8 36 -4 41 -7 42 -31 l2 -26 4 28 c5 29 26 35 53 16 12 -8 11 -9 -5 -5 -31
9 -32 -37 -2 -52 20 -11 20 -11 2 -9 -14 1 -20 -4 -19 -15 1 -10 -3 -18 -10
-18 -6 0 -5 -4 3 -9 11 -7 5 -11 -22 -16 -20 -4 -42 -5 -49 -2 -7 3 1 6 17 6
28 1 30 4 31 35 0 19 -3 33 -8 30 -4 -3 -8 -16 -8 -30 0 -20 -5 -24 -31 -24
-20 0 -28 -4 -23 -12 5 -7 3 -8 -5 -4 -9 6 -8 13 6 29 10 12 22 25 28 29 12 9
10 10 -44 36 -36 17 -48 19 -65 9 -12 -6 -24 -12 -28 -13 -5 -1 -11 -3 -15 -4
-5 -1 -12 -2 -16 -1 -5 1 -6 -3 -2 -9 5 -8 11 -7 21 1 10 8 14 8 14 1 0 -6 -9
-16 -19 -22 -26 -14 -32 14 -12 57 12 27 17 30 33 22 10 -5 18 -8 18 -5z m315
-44 c8 -13 -95 -13 -115 0 -11 7 3 10 47 10 34 0 65 -4 68 -10z m80 -21 c0
-16 -109 -34 -135 -23 -19 8 20 22 68 23 19 1 31 5 27 11 -4 6 3 9 17 7 13 -2
23 -10 23 -18z m-123 -43 c16 -7 25 -16 21 -21 -5 -4 -2 -5 4 -1 7 4 21 2 30
-3 30 -17 -28 -14 -71 4 -20 9 -40 14 -44 11 -4 -3 -9 4 -9 15 -2 21 7 21 69
-5z m-18 -47 c-30 -12 -37 -10 -24 5 6 8 19 12 27 9 14 -6 14 -8 -3 -14z m898
5 c3 -3 -5 -17 -18 -31 -18 -20 -27 -24 -36 -15 -9 9 -5 14 13 21 13 5 20 10
16 10 -10 1 1 21 12 21 4 0 10 -3 13 -6z m-797 -54 c-5 -8 -11 -8 -17 -2 -6 6
-7 16 -3 22 5 8 11 8 17 2 6 -6 7 -16 3 -22z m-40 -16 c-10 -7 -22 -11 -28 -7
-6 3 -7 1 -4 -4 7 -11 -41 -49 -50 -39 -9 8 7 26 45 50 38 24 70 24 37 0z
m925 6 c0 -5 -5 -10 -11 -10 -5 0 -7 5 -4 10 3 6 8 10 11 10 2 0 4 -4 4 -10z
m-898 -32 c-18 -11 -36 -17 -40 -13 -10 10 21 30 49 32 21 2 20 0 -9 -19z
m868 12 c0 -5 -5 -10 -11 -10 -5 0 -7 5 -4 10 3 6 8 10 11 10 2 0 4 -4 4 -10z
m-820 -15 c0 -6 -82 -60 -104 -69 -20 -7 -20 -7 0 15 26 29 104 70 104 54z
m800 -9 c0 -2 -12 -12 -27 -21 l-28 -18 19 21 c17 20 36 29 36 18z m-785 -62
c-10 -7 -22 -11 -28 -7 -6 3 -8 2 -5 -3 3 -5 -14 -19 -38 -30 -24 -12 -44 -18
-44 -14 0 15 103 78 118 72 12 -4 12 -7 -3 -18z m-55 12 c0 -2 -7 -7 -16 -10
-8 -3 -12 -2 -9 4 6 10 25 14 25 6z m614 -19 c-11 -6 -23 -16 -27 -24 -5 -7
-12 -11 -17 -8 -4 3 -10 -2 -14 -10 -3 -8 -12 -15 -20 -15 -7 0 -17 -7 -20
-16 -3 -8 -11 -12 -16 -9 -6 4 17 29 51 56 34 27 66 46 71 43 6 -4 3 -11 -8
-17z m-569 -27 c-10 -11 -23 -20 -29 -20 -6 0 0 9 14 20 32 25 38 25 15 0z
m51 -8 c-3 -5 -23 -21 -46 -37 -41 -29 -65 -29 -36 0 9 9 16 13 16 8 0 -4 7 3
16 15 14 20 62 33 50 14z m29 -22 c3 -5 2 -10 -4 -10 -5 0 -13 5 -16 10 -3 6
-2 10 4 10 5 0 13 -4 16 -10z m210 -19 c-3 -6 -11 -11 -17 -11 -6 0 -6 6 2 15
14 17 26 13 15 -4z m-215 -10 c0 -10 -91 -64 -97 -58 -7 7 49 57 58 51 5 -3 9
0 9 5 0 6 7 11 15 11 8 0 15 -4 15 -9z m370 -5 c0 -3 -4 -8 -10 -11 -5 -3 -10
-1 -10 4 0 6 5 11 10 11 6 0 10 -2 10 -4z m-43 -41 c-9 -8 -20 -15 -26 -15 -6
0 -7 -8 -4 -17 5 -12 2 -15 -10 -10 -12 4 -14 2 -10 -10 5 -13 2 -15 -11 -10
-13 5 -17 3 -13 -6 2 -7 -7 -27 -22 -44 -20 -24 -30 -30 -41 -22 -12 7 1 24
63 85 43 42 81 73 84 70 3 -3 -2 -12 -10 -21z m-317 0 c-33 -19 -46 -19 -30 0
7 8 22 15 34 15 20 -1 20 -2 -4 -15z m25 -31 c-85 -24 -101 -26 -88 -13 7 7
23 13 35 15 13 1 23 3 23 4 0 1 8 3 18 5 11 2 21 6 24 9 3 3 11 2 17 -1 6 -4
-7 -12 -29 -19z m-18 -54 c0 -20 -3 -26 -9 -18 -7 11 -11 5 -10 -12 0 -3 -9
-6 -20 -6 -20 0 -20 0 1 14 11 8 21 23 21 33 0 11 4 19 8 19 5 0 9 -14 9 -30z
m47 -28 c2 -4 -4 -8 -14 -8 -10 0 -16 4 -14 8 3 4 9 8 14 8 5 0 11 -4 14 -8z"/>
<path d="M1915 1300 c-4 -6 -10 -8 -15 -5 -5 3 -26 -4 -47 -15 -21 -11 -28
-18 -15 -15 27 8 30 -12 5 -31 -17 -12 -17 -13 0 -18 9 -3 25 -9 35 -13 38
-14 93 -2 132 30 l26 22 -56 27 c-64 32 -57 31 -65 18z m-20 -20 c-3 -5 -14
-10 -23 -10 -15 0 -15 2 -2 10 20 13 33 13 25 0z"/>
<path d="M2220 1180 c-9 -6 -10 -10 -3 -10 6 0 15 5 18 10 8 12 4 12 -15 0z"/>
<path d="M2260 1180 c-8 -5 -10 -10 -5 -10 6 0 17 5 25 10 8 5 11 10 5 10 -5
0 -17 -5 -25 -10z"/>
<path d="M1113 1073 c9 -2 25 -2 35 0 9 3 1 5 -18 5 -19 0 -27 -2 -17 -5z"/>
<path d="M1388 1183 c6 -2 18 -2 25 0 6 3 1 5 -13 5 -14 0 -19 -2 -12 -5z"/>
<path d="M2372 1116 c6 -14 17 -27 24 -30 9 -3 5 7 -8 24 -26 36 -31 38 -16 6z"/>
<path d="M1975 1093 c-16 -21 -42 -53 -58 -70 -35 -37 -29 -45 7 -10 33 32 93
117 83 117 -3 0 -17 -17 -32 -37z"/>
<path d="M1991 1061 c-17 -28 -29 -51 -27 -51 8 0 67 92 63 97 -3 2 -19 -19
-36 -46z"/>
<path d="M2345 1090 c-16 -7 -17 -9 -3 -9 9 -1 20 4 23 9 7 11 7 11 -20 0z"/>
<path d="M1830 1005 c0 -8 2 -15 4 -15 2 0 6 7 10 15 3 8 1 15 -4 15 -6 0 -10
-7 -10 -15z"/>
<path d="M1946 983 c-6 -14 -5 -15 5 -6 7 7 10 15 7 18 -3 3 -9 -2 -12 -12z"/>
<path d="M882 938 c-36 -61 -102 -201 -97 -206 3 -3 5 0 5 6 0 6 7 17 15 26
14 14 19 12 53 -22 20 -20 51 -47 68 -59 l31 -23 7 70 c4 39 10 70 13 70 2 0
14 -10 25 -22 l20 -23 -16 25 c-39 62 -65 112 -76 145 -16 48 -25 50 -48 13z
m40 -31 c5 -9 5 -17 1 -16 -4 1 -17 1 -28 0 -17 -1 -18 -3 -5 -12 13 -9 12
-10 -3 -5 -15 5 -17 2 -12 -13 7 -22 -10 -38 -20 -20 -11 17 16 59 39 60 17 1
18 2 4 6 -15 4 -16 8 -6 26 9 17 12 19 16 7 3 -8 9 -23 14 -33z"/>
<path d="M1907 935 c-15 -14 -24 -25 -19 -25 5 0 19 11 32 25 30 32 23 32 -13
0z"/>
<path d="M1830 931 c0 -10 19 -25 25 -20 1 2 -3 10 -11 17 -8 7 -14 8 -14 3z"/>
<path d="M950 925 c0 -5 9 -23 20 -40 26 -39 26 -25 0 17 -11 18 -20 29 -20
23z"/>
<path d="M1000 843 c0 -6 19 -31 43 -55 23 -24 30 -30 16 -14 -14 17 -33 42
-42 56 -10 13 -17 19 -17 13z"/>
<path d="M1170 780 c6 -11 13 -20 16 -20 2 0 0 9 -6 20 -6 11 -13 20 -16 20
-2 0 0 -9 6 -20z"/>
<path d="M1139 763 c-13 -16 -12 -17 4 -4 9 7 17 15 17 17 0 8 -8 3 -21 -13z"/>
<path d="M820 754 c0 -22 166 -158 299 -246 95 -62 59 -31 -79 69 -58 41 -131
101 -162 131 -32 31 -58 52 -58 46z"/>
<path d="M1030 736 c0 -2 8 -10 18 -17 15 -13 16 -12 3 4 -13 16 -21 21 -21
13z"/>
<path d="M774 698 c2 -13 8 -22 14 -21 5 1 20 -9 32 -22 26 -28 17 -34 -12 -8
-10 9 -18 13 -18 10 0 -16 122 -96 137 -90 10 4 14 2 9 -5 -7 -12 33 -44 46
-36 4 3 8 1 8 -4 0 -6 13 -18 28 -29 16 -10 71 -46 123 -80 51 -35 98 -63 104
-63 5 0 2 5 -9 11 -12 8 -15 14 -7 18 6 4 -19 24 -57 46 -37 21 -96 57 -131
79 -35 23 -68 40 -73 39 -4 -2 -8 1 -8 6 0 5 -29 30 -63 54 -35 25 -78 62 -95
82 -28 31 -31 33 -28 13z m146 -125 c0 -7 -61 31 -73 46 -7 8 7 2 31 -14 23
-15 42 -30 42 -32z m227 -144 c77 -47 80 -49 66 -49 -11 0 -152 89 -141 90 4
0 38 -19 75 -41z"/>
<path d="M1070 696 c0 -2 8 -10 18 -17 15 -13 16 -12 3 4 -13 16 -21 21 -21
13z"/>
<path d="M1166 672 l-19 -27 24 22 c12 12 21 24 18 27 -2 2 -13 -8 -23 -22z"/>
<path d="M1719 618 c-73 -87 -85 -106 -25 -43 52 55 82 95 73 95 -2 0 -24 -23
-48 -52z"/>
<path d="M1200 457 c0 -9 137 -86 187 -106 83 -33 325 -83 293 -62 -8 6 -27
11 -42 11 -48 0 -262 58 -293 80 -24 16 -145 81 -145 77z"/>
<path d="M1264 365 c13 -10 15 -15 6 -15 -9 0 -7 -5 6 -15 26 -19 43 -19 18 1
-18 14 -18 15 6 8 14 -4 32 -9 40 -12 34 -12 1 8 -45 27 -32 14 -43 16 -31 6z"/>
<path d="M1349 305 c18 -8 36 -15 40 -15 13 1 -45 29 -59 29 -8 0 0 -6 19 -14z"/>
<path d="M1420 305 c19 -7 42 -13 50 -13 8 0 -1 6 -20 13 -19 7 -42 13 -50 13
-8 0 1 -6 20 -13z"/>
<path d="M1785 305 l-20 -15 20 7 c18 6 19 5 5 -13 -8 -10 -19 -22 -25 -26 -6
-5 -6 -8 1 -8 17 0 46 37 42 55 -3 15 -5 15 -23 0z"/>
<path d="M1450 270 c8 -5 22 -9 30 -9 10 0 8 3 -5 9 -27 12 -43 12 -25 0z"/>
<path d="M1568 273 c6 -2 18 -2 25 0 6 3 1 5 -13 5 -14 0 -19 -2 -12 -5z"/>
<path d="M1748 273 c7 -3 16 -2 19 1 4 3 -2 6 -13 5 -11 0 -14 -3 -6 -6z"/>
<path d="M1658 263 c12 -2 32 -2 45 0 12 2 2 4 -23 4 -25 0 -35 -2 -22 -4z"/>
<path d="M1528 253 c7 -3 16 -2 19 1 4 3 -2 6 -13 5 -11 0 -14 -3 -6 -6z"/>
<path d="M1583 243 c9 -2 23 -2 30 0 6 3 -1 5 -18 5 -16 0 -22 -2 -12 -5z"/>
<path d="M1658 233 c12 -2 30 -2 40 0 9 3 -1 5 -23 4 -22 0 -30 -2 -17 -4z"/>
</g>
</svg>
